<svg id="Layer_1" data-name="Layer 1" xmlns="http://www.w3.org/2000/svg" viewBox="0 0 1129.64 447.49"><defs><style>.cls-1,.cls-2,.cls-4{fill:none;stroke:#262f34;stroke-miterlimit:10;stroke-width:4px;}.cls-2{stroke-dasharray:46.85 46.85;}.cls-3,.cls-8{fill:#262f34;}.cls-4{stroke-dasharray:50 50;}.cls-5,.cls-8{font-size:401px;font-family:Raleway-Regular, Raleway;letter-spacing:0.04em;}.cls-5{fill:#5d78fd;}.cls-6{letter-spacing:0.05em;}.cls-7{letter-spacing:0.04em;}</style></defs><g id="graph"><line class="cls-1" x1="198.01" y1="46.53" x2="197.98" y2="71.53"/><line class="cls-2" x1="197.92" y1="118.37" x2="197.61" y2="376.03"/><line class="cls-1" x1="197.59" y1="399.46" x2="197.56" y2="424.46"/><polygon class="cls-3" points="190.45 51.67 198.03 23.49 205.55 51.69 190.45 51.67"/><polygon class="cls-3" points="190.01 419.3 197.53 447.49 205.12 419.31 190.01 419.3"/><line class="cls-4" x1="23.03" y1="375.16" x2="1076.03" y2="375.16"/><polygon class="cls-3" points="28.19 382.72 0 375.16 28.19 367.61 28.19 382.72"/><polygon class="cls-3" points="1070.88 382.72 1099.07 375.16 1070.88 367.61 1070.88 382.72"/></g><text class="cls-5" transform="translate(8.45 350.35)">J<tspan class="cls-6" x="208.12" y="0">eb</tspan><tspan class="cls-7" x="727.8" y="0">r</tspan><tspan class="cls-6" x="884.2" y="0">a</tspan></text><text class="cls-5" transform="translate(8.4 350.3)">J<tspan class="cls-6" x="208.12" y="0">eb</tspan><tspan class="cls-7" x="727.8" y="0">r</tspan><tspan class="cls-6" x="884.2" y="0">a</tspan></text><text class="cls-5" transform="translate(8.35 350.25)">J<tspan class="cls-6" x="208.12" y="0">eb</tspan><tspan class="cls-7" x="727.8" y="0">r</tspan><tspan class="cls-6" x="884.2" y="0">a</tspan></text><text class="cls-5" transform="translate(8.3 350.2)">J<tspan class="cls-6" x="208.12" y="0">eb</tspan><tspan class="cls-7" x="727.8" y="0">r</tspan><tspan class="cls-6" x="884.2" y="0">a</tspan></text><text class="cls-5" transform="translate(8.25 350.15)">J<tspan class="cls-6" x="208.12" y="0">eb</tspan><tspan class="cls-7" x="727.8" y="0">r</tspan><tspan class="cls-6" x="884.2" y="0">a</tspan></text><text class="cls-5" transform="translate(8.2 350.1)">J<tspan class="cls-6" x="208.12" y="0">eb</tspan><tspan class="cls-7" x="727.8" y="0">r</tspan><tspan class="cls-6" x="884.2" y="0">a</tspan></text><text class="cls-5" transform="translate(8.15 350.05)">J<tspan class="cls-6" x="208.12" y="0">eb</tspan><tspan class="cls-7" x="727.8" y="0">r</tspan><tspan class="cls-6" x="884.2" y="0">a</tspan></text><text class="cls-5" transform="translate(8.1 350)">J<tspan class="cls-6" x="208.12" y="0">eb</tspan><tspan class="cls-7" x="727.8" y="0">r</tspan><tspan class="cls-6" x="884.2" y="0">a</tspan></text><text class="cls-5" transform="translate(8.05 349.95)">J<tspan class="cls-6" x="208.12" y="0">eb</tspan><tspan class="cls-7" x="727.8" y="0">r</tspan><tspan class="cls-6" x="884.2" y="0">a</tspan></text><text class="cls-5" transform="translate(8 349.9)">J<tspan class="cls-6" x="208.12" y="0">eb</tspan><tspan class="cls-7" x="727.8" y="0">r</tspan><tspan class="cls-6" x="884.2" y="0">a</tspan></text><text class="cls-5" transform="translate(7.95 349.85)">J<tspan class="cls-6" x="208.12" y="0">eb</tspan><tspan class="cls-7" x="727.8" y="0">r</tspan><tspan class="cls-6" x="884.2" y="0">a</tspan></text><text class="cls-5" transform="translate(7.9 349.8)">J<tspan class="cls-6" x="208.12" y="0">eb</tspan><tspan class="cls-7" x="727.8" y="0">r</tspan><tspan class="cls-6" x="884.2" y="0">a</tspan></text><text class="cls-5" transform="translate(7.85 349.75)">J<tspan class="cls-6" x="208.12" y="0">eb</tspan><tspan class="cls-7" x="727.8" y="0">r</tspan><tspan class="cls-6" x="884.2" y="0">a</tspan></text><text class="cls-5" transform="translate(7.8 349.7)">J<tspan class="cls-6" x="208.12" y="0">eb</tspan><tspan class="cls-7" x="727.8" y="0">r</tspan><tspan class="cls-6" x="884.2" y="0">a</tspan></text><text class="cls-5" transform="translate(7.75 349.65)">J<tspan class="cls-6" x="208.12" y="0">eb</tspan><tspan class="cls-7" x="727.8" y="0">r</tspan><tspan class="cls-6" x="884.2" y="0">a</tspan></text><text class="cls-5" transform="translate(7.7 349.6)">J<tspan class="cls-6" x="208.12" y="0">eb</tspan><tspan class="cls-7" x="727.8" y="0">r</tspan><tspan class="cls-6" x="884.2" y="0">a</tspan></text><text class="cls-5" transform="translate(7.65 349.55)">J<tspan class="cls-6" x="208.12" y="0">eb</tspan><tspan class="cls-7" x="727.8" y="0">r</tspan><tspan class="cls-6" x="884.2" y="0">a</tspan></text><text class="cls-5" transform="translate(7.6 349.5)">J<tspan class="cls-6" x="208.12" y="0">eb</tspan><tspan class="cls-7" x="727.8" y="0">r</tspan><tspan class="cls-6" x="884.2" y="0">a</tspan></text><text class="cls-5" transform="translate(7.55 349.45)">J<tspan class="cls-6" x="208.12" y="0">eb</tspan><tspan class="cls-7" x="727.8" y="0">r</tspan><tspan class="cls-6" x="884.2" y="0">a</tspan></text><text class="cls-5" transform="translate(7.5 349.4)">J<tspan class="cls-6" x="208.12" y="0">eb</tspan><tspan class="cls-7" x="727.8" y="0">r</tspan><tspan class="cls-6" x="884.2" y="0">a</tspan></text><text class="cls-5" transform="translate(7.45 349.35)">J<tspan class="cls-6" x="208.12" y="0">eb</tspan><tspan class="cls-7" x="727.8" y="0">r</tspan><tspan class="cls-6" x="884.2" y="0">a</tspan></text><text class="cls-5" transform="translate(7.4 349.3)">J<tspan class="cls-6" x="208.12" y="0">eb</tspan><tspan class="cls-7" x="727.8" y="0">r</tspan><tspan class="cls-6" x="884.2" y="0">a</tspan></text><text class="cls-5" transform="translate(7.35 349.25)">J<tspan class="cls-6" x="208.12" y="0">eb</tspan><tspan class="cls-7" x="727.8" y="0">r</tspan><tspan class="cls-6" x="884.2" y="0">a</tspan></text><text class="cls-5" transform="translate(7.3 349.2)">J<tspan class="cls-6" x="208.12" y="0">eb</tspan><tspan class="cls-7" x="727.8" y="0">r</tspan><tspan class="cls-6" x="884.2" y="0">a</tspan></text><text class="cls-5" transform="translate(7.25 349.15)">J<tspan class="cls-6" x="208.12" y="0">eb</tspan><tspan class="cls-7" x="727.8" y="0">r</tspan><tspan class="cls-6" x="884.2" y="0">a</tspan></text><text class="cls-5" transform="translate(7.2 349.1)">J<tspan class="cls-6" x="208.12" y="0">eb</tspan><tspan class="cls-7" x="727.8" y="0">r</tspan><tspan class="cls-6" x="884.2" y="0">a</tspan></text><text class="cls-5" transform="translate(7.15 349.05)">J<tspan class="cls-6" x="208.12" y="0">eb</tspan><tspan class="cls-7" x="727.8" y="0">r</tspan><tspan class="cls-6" x="884.2" y="0">a</tspan></text><text class="cls-5" transform="translate(7.1 349)">J<tspan class="cls-6" x="208.12" y="0">eb</tspan><tspan class="cls-7" x="727.8" y="0">r</tspan><tspan class="cls-6" x="884.2" y="0">a</tspan></text><text class="cls-5" transform="translate(7.05 348.95)">J<tspan class="cls-6" x="208.12" y="0">eb</tspan><tspan class="cls-7" x="727.8" y="0">r</tspan><tspan class="cls-6" x="884.2" y="0">a</tspan></text><text class="cls-5" transform="translate(7 348.9)">J<tspan class="cls-6" x="208.12" y="0">eb</tspan><tspan class="cls-7" x="727.8" y="0">r</tspan><tspan class="cls-6" x="884.2" y="0">a</tspan></text><text class="cls-5" transform="translate(6.95 348.85)">J<tspan class="cls-6" x="208.12" y="0">eb</tspan><tspan class="cls-7" x="727.8" y="0">r</tspan><tspan class="cls-6" x="884.2" y="0">a</tspan></text><text class="cls-5" transform="translate(6.9 348.8)">J<tspan class="cls-6" x="208.12" y="0">eb</tspan><tspan class="cls-7" x="727.8" y="0">r</tspan><tspan class="cls-6" x="884.2" y="0">a</tspan></text><text class="cls-5" transform="translate(6.85 348.75)">J<tspan class="cls-6" x="208.12" y="0">eb</tspan><tspan class="cls-7" x="727.8" y="0">r</tspan><tspan class="cls-6" x="884.2" y="0">a</tspan></text><text class="cls-5" transform="translate(6.8 348.7)">J<tspan class="cls-6" x="208.12" y="0">eb</tspan><tspan class="cls-7" x="727.8" y="0">r</tspan><tspan class="cls-6" x="884.2" y="0">a</tspan></text><text class="cls-5" transform="translate(6.75 348.65)">J<tspan class="cls-6" x="208.12" y="0">eb</tspan><tspan class="cls-7" x="727.8" y="0">r</tspan><tspan class="cls-6" x="884.2" y="0">a</tspan></text><text class="cls-5" transform="translate(6.7 348.6)">J<tspan class="cls-6" x="208.12" y="0">eb</tspan><tspan class="cls-7" x="727.8" y="0">r</tspan><tspan class="cls-6" x="884.2" y="0">a</tspan></text><text class="cls-5" transform="translate(6.65 348.55)">J<tspan class="cls-6" x="208.12" y="0">eb</tspan><tspan class="cls-7" x="727.8" y="0">r</tspan><tspan class="cls-6" x="884.2" y="0">a</tspan></text><text class="cls-5" transform="translate(6.6 348.5)">J<tspan class="cls-6" x="208.12" y="0">eb</tspan><tspan class="cls-7" x="727.8" y="0">r</tspan><tspan class="cls-6" x="884.2" y="0">a</tspan></text><text class="cls-5" transform="translate(6.55 348.45)">J<tspan class="cls-6" x="208.12" y="0">eb</tspan><tspan class="cls-7" x="727.8" y="0">r</tspan><tspan class="cls-6" x="884.2" y="0">a</tspan></text><text class="cls-5" transform="translate(6.5 348.4)">J<tspan class="cls-6" x="208.12" y="0">eb</tspan><tspan class="cls-7" x="727.8" y="0">r</tspan><tspan class="cls-6" x="884.2" y="0">a</tspan></text><text class="cls-5" transform="translate(6.45 348.35)">J<tspan class="cls-6" x="208.12" y="0">eb</tspan><tspan class="cls-7" x="727.8" y="0">r</tspan><tspan class="cls-6" x="884.2" y="0">a</tspan></text><text class="cls-5" transform="translate(6.4 348.3)">J<tspan class="cls-6" x="208.12" y="0">eb</tspan><tspan class="cls-7" x="727.8" y="0">r</tspan><tspan class="cls-6" x="884.2" y="0">a</tspan></text><text class="cls-5" transform="translate(6.35 348.25)">J<tspan class="cls-6" x="208.12" y="0">eb</tspan><tspan class="cls-7" x="727.8" y="0">r</tspan><tspan class="cls-6" x="884.2" y="0">a</tspan></text><text class="cls-5" transform="translate(6.3 348.2)">J<tspan class="cls-6" x="208.12" y="0">eb</tspan><tspan class="cls-7" x="727.8" y="0">r</tspan><tspan class="cls-6" x="884.2" y="0">a</tspan></text><text class="cls-5" transform="translate(6.25 348.15)">J<tspan class="cls-6" x="208.12" y="0">eb</tspan><tspan class="cls-7" x="727.8" y="0">r</tspan><tspan class="cls-6" x="884.2" y="0">a</tspan></text><text class="cls-5" transform="translate(6.2 348.1)">J<tspan class="cls-6" x="208.12" y="0">eb</tspan><tspan class="cls-7" x="727.8" y="0">r</tspan><tspan class="cls-6" x="884.2" y="0">a</tspan></text><text class="cls-5" transform="translate(6.15 348.05)">J<tspan class="cls-6" x="208.12" y="0">eb</tspan><tspan class="cls-7" x="727.8" y="0">r</tspan><tspan class="cls-6" x="884.2" y="0">a</tspan></text><text class="cls-5" transform="translate(6.1 348)">J<tspan class="cls-6" x="208.12" y="0">eb</tspan><tspan class="cls-7" x="727.8" y="0">r</tspan><tspan class="cls-6" x="884.2" y="0">a</tspan></text><text class="cls-5" transform="translate(6.05 347.95)">J<tspan class="cls-6" x="208.12" y="0">eb</tspan><tspan class="cls-7" x="727.8" y="0">r</tspan><tspan class="cls-6" x="884.2" y="0">a</tspan></text><text class="cls-5" transform="translate(6 347.9)">J<tspan class="cls-6" x="208.12" y="0">eb</tspan><tspan class="cls-7" x="727.8" y="0">r</tspan><tspan class="cls-6" x="884.2" y="0">a</tspan></text><text class="cls-5" transform="translate(5.95 347.85)">J<tspan class="cls-6" x="208.12" y="0">eb</tspan><tspan class="cls-7" x="727.8" y="0">r</tspan><tspan class="cls-6" x="884.2" y="0">a</tspan></text><text class="cls-5" transform="translate(5.9 347.8)">J<tspan class="cls-6" x="208.12" y="0">eb</tspan><tspan class="cls-7" x="727.8" y="0">r</tspan><tspan class="cls-6" x="884.2" y="0">a</tspan></text><text class="cls-5" transform="translate(5.85 347.75)">J<tspan class="cls-6" x="208.12" y="0">eb</tspan><tspan class="cls-7" x="727.8" y="0">r</tspan><tspan class="cls-6" x="884.2" y="0">a</tspan></text><text class="cls-5" transform="translate(5.8 347.7)">J<tspan class="cls-6" x="208.12" y="0">eb</tspan><tspan class="cls-7" x="727.8" y="0">r</tspan><tspan class="cls-6" x="884.2" y="0">a</tspan></text><text class="cls-5" transform="translate(5.75 347.65)">J<tspan class="cls-6" x="208.12" y="0">eb</tspan><tspan class="cls-7" x="727.8" y="0">r</tspan><tspan class="cls-6" x="884.2" y="0">a</tspan></text><text class="cls-5" transform="translate(5.7 347.6)">J<tspan class="cls-6" x="208.12" y="0">eb</tspan><tspan class="cls-7" x="727.8" y="0">r</tspan><tspan class="cls-6" x="884.2" y="0">a</tspan></text><text class="cls-5" transform="translate(5.65 347.55)">J<tspan class="cls-6" x="208.12" y="0">eb</tspan><tspan class="cls-7" x="727.8" y="0">r</tspan><tspan class="cls-6" x="884.2" y="0">a</tspan></text><text class="cls-5" transform="translate(5.6 347.5)">J<tspan class="cls-6" x="208.12" y="0">eb</tspan><tspan class="cls-7" x="727.8" y="0">r</tspan><tspan class="cls-6" x="884.2" y="0">a</tspan></text><text class="cls-5" transform="translate(5.55 347.45)">J<tspan class="cls-6" x="208.12" y="0">eb</tspan><tspan class="cls-7" x="727.8" y="0">r</tspan><tspan class="cls-6" x="884.2" y="0">a</tspan></text><text class="cls-5" transform="translate(5.5 347.4)">J<tspan class="cls-6" x="208.12" y="0">eb</tspan><tspan class="cls-7" x="727.8" y="0">r</tspan><tspan class="cls-6" x="884.2" y="0">a</tspan></text><text class="cls-5" transform="translate(5.45 347.35)">J<tspan class="cls-6" x="208.12" y="0">eb</tspan><tspan class="cls-7" x="727.8" y="0">r</tspan><tspan class="cls-6" x="884.2" y="0">a</tspan></text><text class="cls-5" transform="translate(5.4 347.3)">J<tspan class="cls-6" x="208.12" y="0">eb</tspan><tspan class="cls-7" x="727.8" y="0">r</tspan><tspan class="cls-6" x="884.2" y="0">a</tspan></text><text class="cls-5" transform="translate(5.35 347.25)">J<tspan class="cls-6" x="208.12" y="0">eb</tspan><tspan class="cls-7" x="727.8" y="0">r</tspan><tspan class="cls-6" x="884.2" y="0">a</tspan></text><text class="cls-5" transform="translate(5.3 347.2)">J<tspan class="cls-6" x="208.12" y="0">eb</tspan><tspan class="cls-7" x="727.8" y="0">r</tspan><tspan class="cls-6" x="884.2" y="0">a</tspan></text><text class="cls-5" transform="translate(5.25 347.15)">J<tspan class="cls-6" x="208.12" y="0">eb</tspan><tspan class="cls-7" x="727.8" y="0">r</tspan><tspan class="cls-6" x="884.2" y="0">a</tspan></text><text class="cls-5" transform="translate(5.2 347.1)">J<tspan class="cls-6" x="208.12" y="0">eb</tspan><tspan class="cls-7" x="727.8" y="0">r</tspan><tspan class="cls-6" x="884.2" y="0">a</tspan></text><text class="cls-5" transform="translate(5.15 347.05)">J<tspan class="cls-6" x="208.12" y="0">eb</tspan><tspan class="cls-7" x="727.8" y="0">r</tspan><tspan class="cls-6" x="884.2" y="0">a</tspan></text><text class="cls-5" transform="translate(5.1 347)">J<tspan class="cls-6" x="208.12" y="0">eb</tspan><tspan class="cls-7" x="727.8" y="0">r</tspan><tspan class="cls-6" x="884.2" y="0">a</tspan></text><text class="cls-5" transform="translate(5.05 346.95)">J<tspan class="cls-6" x="208.12" y="0">eb</tspan><tspan class="cls-7" x="727.8" y="0">r</tspan><tspan class="cls-6" x="884.2" y="0">a</tspan></text><text class="cls-5" transform="translate(5 346.9)">J<tspan class="cls-6" x="208.12" y="0">eb</tspan><tspan class="cls-7" x="727.8" y="0">r</tspan><tspan class="cls-6" x="884.2" y="0">a</tspan></text><text class="cls-5" transform="translate(4.95 346.85)">J<tspan class="cls-6" x="208.12" y="0">eb</tspan><tspan class="cls-7" x="727.8" y="0">r</tspan><tspan class="cls-6" x="884.2" y="0">a</tspan></text><text class="cls-5" transform="translate(4.9 346.8)">J<tspan class="cls-6" x="208.12" y="0">eb</tspan><tspan class="cls-7" x="727.8" y="0">r</tspan><tspan class="cls-6" x="884.2" y="0">a</tspan></text><text class="cls-5" transform="translate(4.85 346.75)">J<tspan class="cls-6" x="208.12" y="0">eb</tspan><tspan class="cls-7" x="727.8" y="0">r</tspan><tspan class="cls-6" x="884.2" y="0">a</tspan></text><text class="cls-5" transform="translate(4.8 346.7)">J<tspan class="cls-6" x="208.12" y="0">eb</tspan><tspan class="cls-7" x="727.8" y="0">r</tspan><tspan class="cls-6" x="884.2" y="0">a</tspan></text><text class="cls-5" transform="translate(4.75 346.65)">J<tspan class="cls-6" x="208.12" y="0">eb</tspan><tspan class="cls-7" x="727.8" y="0">r</tspan><tspan class="cls-6" x="884.2" y="0">a</tspan></text><text class="cls-5" transform="translate(4.7 346.6)">J<tspan class="cls-6" x="208.12" y="0">eb</tspan><tspan class="cls-7" x="727.8" y="0">r</tspan><tspan class="cls-6" x="884.2" y="0">a</tspan></text><text class="cls-5" transform="translate(4.65 346.55)">J<tspan class="cls-6" x="208.12" y="0">eb</tspan><tspan class="cls-7" x="727.8" y="0">r</tspan><tspan class="cls-6" x="884.2" y="0">a</tspan></text><text class="cls-5" transform="translate(4.6 346.5)">J<tspan class="cls-6" x="208.12" y="0">eb</tspan><tspan class="cls-7" x="727.8" y="0">r</tspan><tspan class="cls-6" x="884.2" y="0">a</tspan></text><text class="cls-5" transform="translate(4.55 346.45)">J<tspan class="cls-6" x="208.12" y="0">eb</tspan><tspan class="cls-7" x="727.8" y="0">r</tspan><tspan class="cls-6" x="884.2" y="0">a</tspan></text><text class="cls-5" transform="translate(4.5 346.4)">J<tspan class="cls-6" x="208.12" y="0">eb</tspan><tspan class="cls-7" x="727.8" y="0">r</tspan><tspan class="cls-6" x="884.2" y="0">a</tspan></text><text class="cls-5" transform="translate(4.45 346.35)">J<tspan class="cls-6" x="208.12" y="0">eb</tspan><tspan class="cls-7" x="727.8" y="0">r</tspan><tspan class="cls-6" x="884.2" y="0">a</tspan></text><text class="cls-5" transform="translate(4.4 346.3)">J<tspan class="cls-6" x="208.12" y="0">eb</tspan><tspan class="cls-7" x="727.8" y="0">r</tspan><tspan class="cls-6" x="884.2" y="0">a</tspan></text><text class="cls-5" transform="translate(4.35 346.25)">J<tspan class="cls-6" x="208.12" y="0">eb</tspan><tspan class="cls-7" x="727.8" y="0">r</tspan><tspan class="cls-6" x="884.2" y="0">a</tspan></text><text class="cls-5" transform="translate(4.3 346.2)">J<tspan class="cls-6" x="208.12" y="0">eb</tspan><tspan class="cls-7" x="727.8" y="0">r</tspan><tspan class="cls-6" x="884.2" y="0">a</tspan></text><text class="cls-5" transform="translate(4.25 346.15)">J<tspan class="cls-6" x="208.12" y="0">eb</tspan><tspan class="cls-7" x="727.8" y="0">r</tspan><tspan class="cls-6" x="884.2" y="0">a</tspan></text><text class="cls-5" transform="translate(4.2 346.1)">J<tspan class="cls-6" x="208.12" y="0">eb</tspan><tspan class="cls-7" x="727.8" y="0">r</tspan><tspan class="cls-6" x="884.2" y="0">a</tspan></text><text class="cls-5" transform="translate(4.15 346.05)">J<tspan class="cls-6" x="208.12" y="0">eb</tspan><tspan class="cls-7" x="727.8" y="0">r</tspan><tspan class="cls-6" x="884.2" y="0">a</tspan></text><text class="cls-5" transform="translate(4.1 346)">J<tspan class="cls-6" x="208.12" y="0">eb</tspan><tspan class="cls-7" x="727.8" y="0">r</tspan><tspan class="cls-6" x="884.2" y="0">a</tspan></text><text class="cls-5" transform="translate(4.05 345.95)">J<tspan class="cls-6" x="208.12" y="0">eb</tspan><tspan class="cls-7" x="727.8" y="0">r</tspan><tspan class="cls-6" x="884.2" y="0">a</tspan></text><text class="cls-5" transform="translate(4 345.9)">J<tspan class="cls-6" x="208.12" y="0">eb</tspan><tspan class="cls-7" x="727.8" y="0">r</tspan><tspan class="cls-6" x="884.2" y="0">a</tspan></text><text class="cls-5" transform="translate(3.95 345.85)">J<tspan class="cls-6" x="208.12" y="0">eb</tspan><tspan class="cls-7" x="727.8" y="0">r</tspan><tspan class="cls-6" x="884.2" y="0">a</tspan></text><text class="cls-5" transform="translate(3.9 345.8)">J<tspan class="cls-6" x="208.12" y="0">eb</tspan><tspan class="cls-7" x="727.8" y="0">r</tspan><tspan class="cls-6" x="884.2" y="0">a</tspan></text><text class="cls-5" transform="translate(3.85 345.75)">J<tspan class="cls-6" x="208.12" y="0">eb</tspan><tspan class="cls-7" x="727.8" y="0">r</tspan><tspan class="cls-6" x="884.2" y="0">a</tspan></text><text class="cls-5" transform="translate(3.8 345.7)">J<tspan class="cls-6" x="208.12" y="0">eb</tspan><tspan class="cls-7" x="727.8" y="0">r</tspan><tspan class="cls-6" x="884.2" y="0">a</tspan></text><text class="cls-5" transform="translate(3.75 345.65)">J<tspan class="cls-6" x="208.12" y="0">eb</tspan><tspan class="cls-7" x="727.8" y="0">r</tspan><tspan class="cls-6" x="884.2" y="0">a</tspan></text><text class="cls-5" transform="translate(3.7 345.6)">J<tspan class="cls-6" x="208.12" y="0">eb</tspan><tspan class="cls-7" x="727.8" y="0">r</tspan><tspan class="cls-6" x="884.2" y="0">a</tspan></text><text class="cls-5" transform="translate(3.65 345.55)">J<tspan class="cls-6" x="208.12" y="0">eb</tspan><tspan class="cls-7" x="727.8" y="0">r</tspan><tspan class="cls-6" x="884.2" y="0">a</tspan></text><text class="cls-5" transform="translate(3.6 345.5)">J<tspan class="cls-6" x="208.12" y="0">eb</tspan><tspan class="cls-7" x="727.8" y="0">r</tspan><tspan class="cls-6" x="884.2" y="0">a</tspan></text><text class="cls-5" transform="translate(3.55 345.45)">J<tspan class="cls-6" x="208.12" y="0">eb</tspan><tspan class="cls-7" x="727.8" y="0">r</tspan><tspan class="cls-6" x="884.2" y="0">a</tspan></text><text class="cls-5" transform="translate(3.5 345.4)">J<tspan class="cls-6" x="208.12" y="0">eb</tspan><tspan class="cls-7" x="727.8" y="0">r</tspan><tspan class="cls-6" x="884.2" y="0">a</tspan></text><text class="cls-5" transform="translate(3.45 345.35)">J<tspan class="cls-6" x="208.12" y="0">eb</tspan><tspan class="cls-7" x="727.8" y="0">r</tspan><tspan class="cls-6" x="884.2" y="0">a</tspan></text><text class="cls-5" transform="translate(3.4 345.3)">J<tspan class="cls-6" x="208.12" y="0">eb</tspan><tspan class="cls-7" x="727.8" y="0">r</tspan><tspan class="cls-6" x="884.2" y="0">a</tspan></text><text class="cls-5" transform="translate(3.35 345.25)">J<tspan class="cls-6" x="208.12" y="0">eb</tspan><tspan class="cls-7" x="727.8" y="0">r</tspan><tspan class="cls-6" x="884.2" y="0">a</tspan></text><text class="cls-5" transform="translate(3.3 345.2)">J<tspan class="cls-6" x="208.12" y="0">eb</tspan><tspan class="cls-7" x="727.8" y="0">r</tspan><tspan class="cls-6" x="884.2" y="0">a</tspan></text><text class="cls-5" transform="translate(3.25 345.15)">J<tspan class="cls-6" x="208.12" y="0">eb</tspan><tspan class="cls-7" x="727.8" y="0">r</tspan><tspan class="cls-6" x="884.2" y="0">a</tspan></text><text class="cls-5" transform="translate(3.2 345.1)">J<tspan class="cls-6" x="208.12" y="0">eb</tspan><tspan class="cls-7" x="727.8" y="0">r</tspan><tspan class="cls-6" x="884.2" y="0">a</tspan></text><text class="cls-5" transform="translate(3.15 345.05)">J<tspan class="cls-6" x="208.12" y="0">eb</tspan><tspan class="cls-7" x="727.8" y="0">r</tspan><tspan class="cls-6" x="884.2" y="0">a</tspan></text><text class="cls-5" transform="translate(3.1 345)">J<tspan class="cls-6" x="208.12" y="0">eb</tspan><tspan class="cls-7" x="727.8" y="0">r</tspan><tspan class="cls-6" x="884.2" y="0">a</tspan></text><text class="cls-5" transform="translate(3.05 344.95)">J<tspan class="cls-6" x="208.12" y="0">eb</tspan><tspan class="cls-7" x="727.8" y="0">r</tspan><tspan class="cls-6" x="884.2" y="0">a</tspan></text><text class="cls-5" transform="translate(3 344.9)">J<tspan class="cls-6" x="208.12" y="0">eb</tspan><tspan class="cls-7" x="727.8" y="0">r</tspan><tspan class="cls-6" x="884.2" y="0">a</tspan></text><text class="cls-5" transform="translate(2.95 344.85)">J<tspan class="cls-6" x="208.12" y="0">eb</tspan><tspan class="cls-7" x="727.8" y="0">r</tspan><tspan class="cls-6" x="884.2" y="0">a</tspan></text><text class="cls-5" transform="translate(2.9 344.8)">J<tspan class="cls-6" x="208.12" y="0">eb</tspan><tspan class="cls-7" x="727.8" y="0">r</tspan><tspan class="cls-6" x="884.2" y="0">a</tspan></text><text class="cls-5" transform="translate(2.85 344.75)">J<tspan class="cls-6" x="208.12" y="0">eb</tspan><tspan class="cls-7" x="727.8" y="0">r</tspan><tspan class="cls-6" x="884.2" y="0">a</tspan></text><text class="cls-5" transform="translate(2.8 344.7)">J<tspan class="cls-6" x="208.12" y="0">eb</tspan><tspan class="cls-7" x="727.8" y="0">r</tspan><tspan class="cls-6" x="884.2" y="0">a</tspan></text><text class="cls-5" transform="translate(2.75 344.65)">J<tspan class="cls-6" x="208.12" y="0">eb</tspan><tspan class="cls-7" x="727.8" y="0">r</tspan><tspan class="cls-6" x="884.2" y="0">a</tspan></text><text class="cls-5" transform="translate(2.7 344.6)">J<tspan class="cls-6" x="208.12" y="0">eb</tspan><tspan class="cls-7" x="727.8" y="0">r</tspan><tspan class="cls-6" x="884.2" y="0">a</tspan></text><text class="cls-5" transform="translate(2.65 344.55)">J<tspan class="cls-6" x="208.12" y="0">eb</tspan><tspan class="cls-7" x="727.8" y="0">r</tspan><tspan class="cls-6" x="884.2" y="0">a</tspan></text><text class="cls-5" transform="translate(2.6 344.5)">J<tspan class="cls-6" x="208.12" y="0">eb</tspan><tspan class="cls-7" x="727.8" y="0">r</tspan><tspan class="cls-6" x="884.2" y="0">a</tspan></text><text class="cls-5" transform="translate(2.55 344.45)">J<tspan class="cls-6" x="208.12" y="0">eb</tspan><tspan class="cls-7" x="727.8" y="0">r</tspan><tspan class="cls-6" x="884.2" y="0">a</tspan></text><text class="cls-5" transform="translate(2.5 344.4)">J<tspan class="cls-6" x="208.12" y="0">eb</tspan><tspan class="cls-7" x="727.8" y="0">r</tspan><tspan class="cls-6" x="884.2" y="0">a</tspan></text><text class="cls-5" transform="translate(2.45 344.35)">J<tspan class="cls-6" x="208.12" y="0">eb</tspan><tspan class="cls-7" x="727.8" y="0">r</tspan><tspan class="cls-6" x="884.2" y="0">a</tspan></text><text class="cls-5" transform="translate(2.4 344.3)">J<tspan class="cls-6" x="208.12" y="0">eb</tspan><tspan class="cls-7" x="727.8" y="0">r</tspan><tspan class="cls-6" x="884.2" y="0">a</tspan></text><text class="cls-5" transform="translate(2.35 344.25)">J<tspan class="cls-6" x="208.12" y="0">eb</tspan><tspan class="cls-7" x="727.8" y="0">r</tspan><tspan class="cls-6" x="884.2" y="0">a</tspan></text><text class="cls-5" transform="translate(2.3 344.2)">J<tspan class="cls-6" x="208.12" y="0">eb</tspan><tspan class="cls-7" x="727.8" y="0">r</tspan><tspan class="cls-6" x="884.2" y="0">a</tspan></text><text class="cls-5" transform="translate(2.25 344.15)">J<tspan class="cls-6" x="208.12" y="0">eb</tspan><tspan class="cls-7" x="727.8" y="0">r</tspan><tspan class="cls-6" x="884.2" y="0">a</tspan></text><text class="cls-5" transform="translate(2.2 344.1)">J<tspan class="cls-6" x="208.12" y="0">eb</tspan><tspan class="cls-7" x="727.8" y="0">r</tspan><tspan class="cls-6" x="884.2" y="0">a</tspan></text><text class="cls-5" transform="translate(2.15 344.05)">J<tspan class="cls-6" x="208.12" y="0">eb</tspan><tspan class="cls-7" x="727.8" y="0">r</tspan><tspan class="cls-6" x="884.2" y="0">a</tspan></text><text class="cls-5" transform="translate(2.1 344)">J<tspan class="cls-6" x="208.12" y="0">eb</tspan><tspan class="cls-7" x="727.8" y="0">r</tspan><tspan class="cls-6" x="884.2" y="0">a</tspan></text><text class="cls-5" transform="translate(2.05 343.95)">J<tspan class="cls-6" x="208.12" y="0">eb</tspan><tspan class="cls-7" x="727.8" y="0">r</tspan><tspan class="cls-6" x="884.2" y="0">a</tspan></text><text class="cls-5" transform="translate(2 343.9)">J<tspan class="cls-6" x="208.12" y="0">eb</tspan><tspan class="cls-7" x="727.8" y="0">r</tspan><tspan class="cls-6" x="884.2" y="0">a</tspan></text><text class="cls-5" transform="translate(1.95 343.85)">J<tspan class="cls-6" x="208.12" y="0">eb</tspan><tspan class="cls-7" x="727.8" y="0">r</tspan><tspan class="cls-6" x="884.2" y="0">a</tspan></text><text class="cls-5" transform="translate(1.9 343.8)">J<tspan class="cls-6" x="208.12" y="0">eb</tspan><tspan class="cls-7" x="727.8" y="0">r</tspan><tspan class="cls-6" x="884.2" y="0">a</tspan></text><text class="cls-5" transform="translate(1.85 343.75)">J<tspan class="cls-6" x="208.12" y="0">eb</tspan><tspan class="cls-7" x="727.8" y="0">r</tspan><tspan class="cls-6" x="884.2" y="0">a</tspan></text><text class="cls-5" transform="translate(1.8 343.7)">J<tspan class="cls-6" x="208.12" y="0">eb</tspan><tspan class="cls-7" x="727.8" y="0">r</tspan><tspan class="cls-6" x="884.2" y="0">a</tspan></text><text class="cls-5" transform="translate(1.75 343.65)">J<tspan class="cls-6" x="208.12" y="0">eb</tspan><tspan class="cls-7" x="727.8" y="0">r</tspan><tspan class="cls-6" x="884.2" y="0">a</tspan></text><text class="cls-5" transform="translate(1.7 343.6)">J<tspan class="cls-6" x="208.12" y="0">eb</tspan><tspan class="cls-7" x="727.8" y="0">r</tspan><tspan class="cls-6" x="884.2" y="0">a</tspan></text><text class="cls-5" transform="translate(1.65 343.55)">J<tspan class="cls-6" x="208.12" y="0">eb</tspan><tspan class="cls-7" x="727.8" y="0">r</tspan><tspan class="cls-6" x="884.2" y="0">a</tspan></text><text class="cls-5" transform="translate(1.6 343.5)">J<tspan class="cls-6" x="208.12" y="0">eb</tspan><tspan class="cls-7" x="727.8" y="0">r</tspan><tspan class="cls-6" x="884.2" y="0">a</tspan></text><text class="cls-5" transform="translate(1.55 343.45)">J<tspan class="cls-6" x="208.12" y="0">eb</tspan><tspan class="cls-7" x="727.8" y="0">r</tspan><tspan class="cls-6" x="884.2" y="0">a</tspan></text><text class="cls-5" transform="translate(1.5 343.4)">J<tspan class="cls-6" x="208.12" y="0">eb</tspan><tspan class="cls-7" x="727.8" y="0">r</tspan><tspan class="cls-6" x="884.2" y="0">a</tspan></text><text class="cls-5" transform="translate(1.45 343.35)">J<tspan class="cls-6" x="208.12" y="0">eb</tspan><tspan class="cls-7" x="727.8" y="0">r</tspan><tspan class="cls-6" x="884.2" y="0">a</tspan></text><text class="cls-5" transform="translate(1.4 343.3)">J<tspan class="cls-6" x="208.12" y="0">eb</tspan><tspan class="cls-7" x="727.8" y="0">r</tspan><tspan class="cls-6" x="884.2" y="0">a</tspan></text><text class="cls-5" transform="translate(1.35 343.25)">J<tspan class="cls-6" x="208.12" y="0">eb</tspan><tspan class="cls-7" x="727.8" y="0">r</tspan><tspan class="cls-6" x="884.2" y="0">a</tspan></text><text class="cls-5" transform="translate(1.3 343.2)">J<tspan class="cls-6" x="208.12" y="0">eb</tspan><tspan class="cls-7" x="727.8" y="0">r</tspan><tspan class="cls-6" x="884.2" y="0">a</tspan></text><text class="cls-5" transform="translate(1.25 343.15)">J<tspan class="cls-6" x="208.12" y="0">eb</tspan><tspan class="cls-7" x="727.8" y="0">r</tspan><tspan class="cls-6" x="884.2" y="0">a</tspan></text><text class="cls-5" transform="translate(1.2 343.1)">J<tspan class="cls-6" x="208.12" y="0">eb</tspan><tspan class="cls-7" x="727.8" y="0">r</tspan><tspan class="cls-6" x="884.2" y="0">a</tspan></text><text class="cls-5" transform="translate(1.15 343.05)">J<tspan class="cls-6" x="208.12" y="0">eb</tspan><tspan class="cls-7" x="727.8" y="0">r</tspan><tspan class="cls-6" x="884.2" y="0">a</tspan></text><text class="cls-5" transform="translate(1.1 343)">J<tspan class="cls-6" x="208.12" y="0">eb</tspan><tspan class="cls-7" x="727.8" y="0">r</tspan><tspan class="cls-6" x="884.2" y="0">a</tspan></text><text class="cls-5" transform="translate(1.05 342.95)">J<tspan class="cls-6" x="208.12" y="0">eb</tspan><tspan class="cls-7" x="727.8" y="0">r</tspan><tspan class="cls-6" x="884.2" y="0">a</tspan></text><text class="cls-5" transform="translate(1 342.9)">J<tspan class="cls-6" x="208.12" y="0">eb</tspan><tspan class="cls-7" x="727.8" y="0">r</tspan><tspan class="cls-6" x="884.2" y="0">a</tspan></text><text class="cls-5" transform="translate(0.95 342.85)">J<tspan class="cls-6" x="208.12" y="0">eb</tspan><tspan class="cls-7" x="727.8" y="0">r</tspan><tspan class="cls-6" x="884.2" y="0">a</tspan></text><text class="cls-8" transform="translate(0.95 342.85)">J<tspan class="cls-6" x="208.12" y="0">eb</tspan><tspan class="cls-7" x="727.8" y="0">r</tspan><tspan class="cls-6" x="884.2" y="0">a</tspan></text></svg>